
<!-- <svg width="24" height="24" viewBox="0 0 24 24" xmlns="http://www.w3.org/2000/svg">
    <path  opacity=".5" fill-rule="evenodd" clip-rule="evenodd" d="M1 12a1 1 0 0 1 1-1h20a1 1 0 1 1 0 2H2a1 1 0 0 1-1-1Z"/>
    <path color="white" fill-rule="evenodd" clip-rule="evenodd" d="M14.293 4.293a1 1 0 0 1 1.414 0l7 7a1 1 0 0 1 0 1.414l-7 7a1 1 0 0 1-1.414-1.414L20.586 12l-6.293-6.293a1 1 0 0 1 0-1.414Z"/>
</svg> -->


<!-- <svg width="16" height="16" viewBox="0 0 16 16" xmlns="http://www.w3.org/2001/svg">
    <g clip-path="url(#b)">
        <path d="M9.3 1.3 7.9 2.7 12.2 7H0v2h12.2l-4.3 4.3 1.4 1.4L16 8 9.3 1.3Z"/>
    </g>
</svg> -->

<svg width="24" height="24" viewBox="0 0 24 24" fill="none" xmlns="http://www.w3.org/2000/svg">
<path fill-rule="evenodd" clip-rule="evenodd" d="M14.2929 5.29289C14.6834 4.90237 15.3166 4.90237 15.7071 5.29289L21.7071 11.2929C22.0976 11.6834 22.0976 12.3166 21.7071 12.7071L15.7071 18.7071C15.3166 19.0976 14.6834 19.0976 14.2929 18.7071C13.9024 18.3166 13.9024 17.6834 14.2929 17.2929L18.5858 13H3C2.44772 13 2 12.5523 2 12C2 11.4477 2.44772 11 3 11H18.5858L14.2929 6.70711C13.9024 6.31658 13.9024 5.68342 14.2929 5.29289Z" fill="white"/>
</svg>

