<!-- <svg width="1600" height="1600" viewBox="0 0 400 400" fill="none" xmlns="http://www.w3.org/2000/svg">
<path d="M223.809 183.131L224.688 184.447L382.165 119.223L385.92 128.29L228.42 193.524L228.729 195.077L399.193 195.077V204.891L228.729 204.891L228.42 206.444L385.92 271.678L382.165 280.745L224.635 215.499L223.755 216.815L344.317 337.377L337.377 344.317L216.815 223.755L215.499 224.635L280.745 382.165L271.678 385.92L206.444 228.42L204.891 228.729L204.891 399.193H195.077L195.077 228.729L193.524 228.42L128.29 385.92L119.223 382.165L184.447 224.688L183.131 223.809L62.6231 344.317L55.6833 337.377L176.245 216.815L175.365 215.499L17.8351 280.745L14.0796 271.678L171.58 206.444L171.271 204.891H0.807143L0.807143 195.077H171.271L171.58 193.524L14.0796 128.29L17.8351 119.223L175.311 184.446L176.19 183.13L55.6833 62.6231L62.6231 55.6833L183.131 176.19L184.447 175.311L119.223 17.8351L128.29 14.0796L193.524 171.58L195.077 171.271V0.807143L204.891 0.807143V171.271L206.444 171.58L271.678 14.0796L280.745 17.8351L215.499 175.365L216.815 176.245L337.377 55.6833L344.317 62.6231L223.809 183.131Z" fill="white" stroke="white" stroke-width="1.61429"/>
</svg> -->



<svg className="logo1" width="400" height="400" viewBox="0 0 400 400" fill="none" xmlns="http://www.w3.org/2000/svg">
    <g clip-path="url(#clip0_413_753)">
        <path d="M220.081 128.848L265.13 17.3485L280.03 23.3689L233.755 137.907L243.969 144.668L331.32 57.3166L342.683 68.6805L259.145 152.219L266.066 162.366L374.327 115.066L380.761 129.793L265.876 179.988L268.378 191.965H393.75V208.037H268.38L265.878 220.014L380.761 270.208L374.327 284.935L266.066 237.635L259.145 247.782L342.683 331.321L331.32 342.684L243.969 255.333L233.755 262.094L280.03 376.633L265.13 382.653L220.081 271.153L208.036 273.495V393.751H191.964V273.495L179.919 271.153L134.871 382.653L119.969 376.633L166.246 262.094L156.032 255.333L68.6801 342.684L57.3161 331.32L140.855 247.782L133.933 237.635L25.6732 284.935L19.2387 270.208L134.123 220.014L131.621 208.037H6.25V191.965H131.621L134.123 179.988L19.2387 129.793L25.6731 115.066L133.933 162.366L140.855 152.219L57.316 68.6808L68.6802 57.3165L156.032 144.668L166.246 137.907L119.969 23.3689L134.871 17.3484L179.919 128.848L191.964 126.507V6.25061H208.036V126.507L220.081 128.848Z" fill="white" stroke="white" stroke-width="12.5"/>
    </g>
    <defs>
        <clipPath id="clip0_413_753">
            <rect width="400" height="400" fill="white"/>
        </clipPath>
    </defs>
</svg>

