<svg width="360" height="401" viewBox="0 0 360 401" fill="none" xmlns="http://www.w3.org/2000/svg">
<path d="M236.708 58.231C236.708 89.6903 211.206 115.193 179.746 115.193C148.287 115.193 122.784 89.6903 122.784 58.231C122.784 26.7718 148.287 1.269 179.746 1.269C211.206 1.269 236.708 26.7718 236.708 58.231Z" fill="white" stroke="white" stroke-width="2.53164"/>
<path d="M236.708 200.003C236.708 231.462 211.206 256.965 179.746 256.965C148.287 256.965 122.784 231.462 122.784 200.003C122.784 168.544 148.287 143.041 179.746 143.041C211.206 143.041 236.708 168.544 236.708 200.003Z" fill="white" stroke="white" stroke-width="2.53164"/>
<path d="M115.19 129.118C115.19 160.578 89.6873 186.08 58.2281 186.08C26.7688 186.08 1.26607 160.578 1.26607 129.118C1.26607 97.6592 26.7688 72.1564 58.2281 72.1564C89.6873 72.1564 115.19 97.6592 115.19 129.118Z" fill="white" stroke="white" stroke-width="2.53164"/>
<path d="M115.19 270.89C115.19 302.35 89.6873 327.852 58.2281 327.852C26.7688 327.852 1.26607 302.35 1.26607 270.89C1.26607 239.431 26.7688 213.928 58.2281 213.928C89.6873 213.928 115.19 239.431 115.19 270.89Z" fill="white" stroke="white" stroke-width="2.53164"/>
<path d="M358.227 129.118C358.227 160.578 332.724 186.08 301.265 186.08C269.806 186.08 244.303 160.578 244.303 129.118C244.303 97.6592 269.806 72.1564 301.265 72.1564C332.724 72.1564 358.227 97.6592 358.227 129.118Z" fill="white" stroke="white" stroke-width="2.53164"/>
<path d="M358.227 270.89C358.227 302.35 332.724 327.852 301.265 327.852C269.806 327.852 244.303 302.35 244.303 270.89C244.303 239.431 269.806 213.928 301.265 213.928C332.724 213.928 358.227 239.431 358.227 270.89Z" fill="white" stroke="white" stroke-width="2.53164"/>
<path d="M236.708 341.775C236.708 373.234 211.206 398.737 179.746 398.737C148.287 398.737 122.784 373.234 122.784 341.775C122.784 310.316 148.287 284.813 179.746 284.813C211.206 284.813 236.708 310.316 236.708 341.775Z" fill="white" stroke="white" stroke-width="2.53164"/>
</svg>
