<svg width="270" height="300" viewBox="0 0 270 300" fill="none" xmlns="http://www.w3.org/2000/svg">
<path d="M223.81 252.778L260.317 231.349L194.444 129.365L165.079 146.825L223.413 252.778H223.81ZM88.8889 279.365L125.794 300L182.54 192.857L152.778 176.19L89.2857 279.365H88.8889ZM0 176.19V218.254L121.825 213.095L121.032 179.365L0 175.794V176.19ZM269.048 123.81L268.651 81.746L146.825 86.9048V121.032L268.651 123.81H269.048ZM44.4444 46.4286L8.33333 67.8571L73.4127 170.238L102.381 153.175L44.4444 46.4286V46.4286ZM178.968 21.0317L142.46 0L86.1111 107.143L115.079 124.206L178.571 21.0317H178.968Z" fill="white"/>
</svg>